<svg width="960" height="960" viewBox="0 0 960 960" fill="none" xmlns="http://www.w3.org/2000/svg">
<g clip-path="url(#clip0_46_7777)">
<g clip-path="url(#clip1_46_7777)">
<path fill-rule="evenodd" clip-rule="evenodd" d="M666.306 715.93C666.306 671.507 612.915 635.5 547.047 635.5C481.179 635.5 427.789 671.518 427.789 715.93C427.789 760.342 481.178 796.349 547.047 796.349C612.916 796.349 666.306 760.353 666.306 715.93ZM547.047 694.988C564.547 694.988 578.722 704.364 578.723 715.929C578.723 727.483 564.536 736.86 547.047 736.86C529.558 736.86 515.371 727.496 515.371 715.93C515.371 704.364 529.547 694.988 547.047 694.988ZM513.611 732.195C512.812 731.644 511.719 731.845 511.168 732.643C510.617 733.441 510.818 734.535 511.616 735.085C531.335 748.694 559.306 748.923 579.247 735.646C580.055 735.108 580.273 734.018 579.736 733.211C579.198 732.404 578.108 732.185 577.301 732.722C558.556 745.203 532.146 744.987 513.611 732.195Z" fill="url(#paint0_linear_46_7777)"/>
<path fill-rule="evenodd" clip-rule="evenodd" d="M446.179 601.82C461.512 601.692 476.823 601.528 492.113 601.328C501.76 601.21 511.402 601.085 521.042 600.96L521.051 600.96L521.06 600.959L521.069 600.959H521.07H521.07H521.071C567.609 600.356 614.096 599.754 660.946 599.876C667.056 599.876 673.178 599.9 679.312 599.946C681.31 595.325 683.306 590.993 685.245 586.784C688.836 578.989 692.233 571.616 695.091 563.611L672.78 552.865L671.961 534.686L707.488 533.867C707.488 533.867 706.938 556.447 728.149 556.178C747.159 555.92 751.28 535.517 751.28 535.517L786.819 534.686L783.506 561.96L748.806 568.56C747.089 573.874 745.318 578.976 743.548 584.075L743.548 584.076L743.547 584.077L743.546 584.08L743.546 584.082L743.546 584.082C741.768 589.203 739.991 594.321 738.271 599.651V599.885C745.223 599.897 752.177 599.925 759.131 599.967L793.839 841.656L259.639 835.456L261.313 829.65L265.808 814.093L303.477 683.644L326.577 603.682C332.769 602.376 339.434 602.432 345.846 602.485C349.204 602.513 352.493 602.54 355.607 602.371C353.707 596.484 351.635 590.979 349.563 585.473L349.562 585.473L349.562 585.473L349.562 585.473C347.49 579.967 345.417 574.459 343.515 568.565L308.804 561.965L305.504 534.691L341.031 535.522C341.031 535.522 345.163 555.922 364.173 556.183C385.384 556.452 384.822 533.872 384.822 533.872L420.361 534.691L419.53 552.87L397.219 563.616C399.366 568.418 401.291 573.333 403.245 578.323C406.288 586.094 409.403 594.046 413.537 602.034C424.431 601.986 435.311 601.914 446.179 601.82ZM666.306 715.928C666.306 671.505 612.916 635.498 547.047 635.498C481.178 635.498 427.788 671.505 427.788 715.928C427.788 760.351 481.178 796.347 547.047 796.347C612.916 796.347 666.306 760.34 666.306 715.928ZM745.085 613.247C746.045 613.107 746.936 613.772 747.076 614.731L777.133 821.259C777.272 822.219 776.607 823.11 775.648 823.25C774.688 823.39 773.797 822.725 773.657 821.765L743.6 615.237C743.461 614.278 744.125 613.386 745.085 613.247ZM780.163 541.385C780.213 540.417 779.469 539.59 778.501 539.539C777.532 539.489 776.706 540.232 776.655 541.201C776.381 546.434 776.106 551.668 775.832 556.901C775.782 557.87 776.526 558.696 777.494 558.747C778.463 558.797 779.289 558.053 779.34 557.085C779.614 551.852 779.888 546.618 780.163 541.385ZM657.841 760.127C658.483 760.854 658.415 761.963 657.688 762.606C625.729 790.855 584.549 806.454 541.895 806.467C499.24 806.48 458.051 790.907 426.074 762.677C425.347 762.036 425.278 760.926 425.92 760.199C426.562 759.472 427.671 759.403 428.398 760.045C459.733 787.708 500.096 802.968 541.894 802.955C583.692 802.942 624.045 787.657 655.362 759.974C656.089 759.332 657.199 759.4 657.841 760.127ZM416.894 539.516C416.828 538.549 415.989 537.819 415.022 537.885C414.054 537.952 413.324 538.79 413.391 539.758L414.132 550.506C414.198 551.473 415.037 552.204 416.004 552.137C416.972 552.07 417.702 551.232 417.635 550.264L416.894 539.516Z" fill="#171717"/>
<path fill-rule="evenodd" clip-rule="evenodd" d="M663.275 504.529C663.989 474.883 664.704 445.242 665.415 416.87V416.872H665.428C712.169 416.416 762.562 404.171 791.862 367.743C809.999 345.2 817.755 316.25 824.24 288.065C832.199 253.457 838.895 218.624 844.327 183.565C845.79 174.196 846.972 163.93 842.009 155.865C839.61 152.06 836.146 149.044 832.047 147.191C823.994 143.34 813.623 142.801 804.375 142.848C795.432 142.895 785.716 143.316 777.323 146.032C771.119 148.022 765.617 151.277 761.672 156.556C755.327 165.027 754.974 176.282 754.638 186.978C754.611 187.825 754.584 188.669 754.555 189.508C753.414 222.537 745.554 254.986 731.455 284.875C725.403 297.706 717.841 310.417 706.182 318.506C689.279 330.244 667.155 330.198 646.588 329.706C634.027 329.406 621.46 329.109 608.888 328.816C580.674 328.141 552.467 327.47 524.267 326.803C522.254 326.756 520.229 326.709 518.192 326.674C492.264 326.257 464.931 327.451 444.469 342.774C443.89 345.338 443.491 347.939 443.275 350.558C441.987 366.126 466.722 413.862 472.364 424.585C472.652 425.132 472.935 425.675 473.216 426.214C477.422 434.268 481.102 441.316 489.77 444.508C500.338 448.403 511.805 446.142 523.229 443.888C535.252 441.517 547.227 439.155 558.05 443.993C572.881 450.619 579.202 468.107 582.269 484.062C584.634 496.342 585.874 509.522 580.759 520.912C575.27 533.156 563.201 541.327 550.57 545.845C545.637 547.609 540.544 548.891 535.364 549.673L535.434 550.118C537.099 555.752 537.069 561.75 535.347 567.367C533.626 572.983 530.289 577.968 525.753 581.7C520.935 585.429 515.077 587.569 508.99 587.822C504.324 593.351 498.581 597.872 492.11 601.108V601.33C501.85 601.211 511.584 601.084 521.317 600.958C567.772 600.355 614.178 599.753 660.943 599.878V599.831C661.719 569.151 662.497 536.837 663.275 504.529ZM833.195 166.26C833.291 165.295 832.587 164.435 831.622 164.339C830.657 164.243 829.797 164.947 829.701 165.912C825.716 205.98 819.234 245.761 810.292 285.021C802.203 320.532 790.511 357.552 761.982 379.008C761.207 379.59 761.051 380.691 761.634 381.466C762.217 382.241 763.317 382.397 764.093 381.814C793.748 359.512 805.635 321.277 813.716 285.801C822.691 246.398 829.197 206.473 833.195 166.26Z" fill="url(#paint1_linear_46_7777)"/>
<path fill-rule="evenodd" clip-rule="evenodd" d="M597.587 145.156C596.05 144.296 594.455 144.575 593.238 145.123C592.034 145.666 590.976 146.556 590.193 147.374L590.192 147.376C584.266 153.583 580.524 161.552 579.533 170.077C579.421 171.04 580.112 171.912 581.075 172.024C582.038 172.136 582.91 171.445 583.022 170.482C583.924 162.717 587.333 155.457 592.731 149.802C593.341 149.165 594.038 148.615 594.681 148.325C595.307 148.043 595.649 148.098 595.868 148.219C596.041 148.318 596.238 148.526 596.409 149.004C596.586 149.496 596.678 150.123 596.721 150.824L596.721 150.827C597.054 156.059 596.342 161.306 594.625 166.26C594.342 167.076 594.696 167.978 595.459 168.384C596.222 168.791 597.167 168.582 597.687 167.891C602.133 161.992 607.074 156.482 612.458 151.424C613.294 150.642 614.18 149.943 615.034 149.54C615.873 149.144 616.478 149.123 616.961 149.332L616.97 149.335C617.522 149.57 617.938 150.105 618.104 151.185C618.272 152.278 618.115 153.635 617.762 154.849L617.761 154.851C615.632 162.197 611.335 168.729 605.431 173.591C604.725 174.173 604.584 175.199 605.106 175.95C605.629 176.7 606.64 176.924 607.431 176.464C617.859 170.395 628.896 165.439 640.361 161.679C641.527 161.3 642.678 161.005 643.704 160.964C644.679 160.925 645.37 161.119 645.864 161.52C646.287 161.981 646.572 162.552 646.684 163.169C646.801 163.807 646.727 164.465 646.473 165.062C645.759 166.644 644.701 168.048 643.376 169.169C643.348 169.193 643.32 169.218 643.293 169.244C632.112 180.007 622.24 187.673 607.589 191.737C606.655 191.997 606.107 192.964 606.367 193.899C606.626 194.833 607.594 195.381 608.528 195.122C623.99 190.832 634.363 182.711 645.689 171.812C647.397 170.355 648.761 168.537 649.682 166.489L649.694 166.463C650.225 165.227 650.381 163.862 650.139 162.539C649.898 161.216 649.271 159.993 648.338 159.025C648.302 158.988 648.265 158.953 648.227 158.919C646.817 157.691 645.1 157.393 643.563 157.455C642.041 157.516 640.518 157.935 639.273 158.339L639.268 158.341C630.972 161.062 622.894 164.397 615.103 168.315C617.785 164.542 619.831 160.325 621.134 155.829C621.581 154.293 621.844 152.4 621.576 150.651C621.305 148.889 620.426 146.991 618.348 146.105C616.609 145.356 614.897 145.722 613.535 146.364C612.187 147 610.985 147.992 610.057 148.86L610.054 148.863C606.459 152.241 603.055 155.816 599.859 159.568C600.292 156.609 600.417 153.605 600.226 150.605C600.175 149.784 600.057 148.773 599.716 147.82C599.37 146.856 598.744 145.811 597.595 145.16L597.595 145.16L597.587 145.156Z" fill="#171717"/>
<path fill-rule="evenodd" clip-rule="evenodd" d="M391.022 377.386C389.627 372.209 388.224 367.095 386.813 361.949C385.228 356.169 383.631 350.348 382.022 344.352C376.022 321.959 370.822 297.939 378.136 275.943C384.855 255.762 401.114 240.381 417.636 226.989C430.302 216.7 446.526 206.504 461.907 211.959C473.671 216.138 480.543 228.148 485.775 239.479C493.232 255.621 499.19 275.603 489.123 290.259C485.126 296.072 479.215 300.021 473.287 303.981L473.286 303.981C470.429 305.889 467.568 307.801 464.915 309.925C454.608 318.269 447.409 329.838 444.477 342.771C443.898 345.334 443.499 347.935 443.283 350.555C441.995 366.124 466.73 413.86 472.372 424.582C472.661 425.131 472.946 425.677 473.229 426.218C477.433 434.268 481.113 441.313 489.778 444.505C500.347 448.403 511.816 446.14 523.24 443.886C535.263 441.514 547.236 439.152 558.058 443.99C572.889 450.615 579.21 468.104 582.277 484.059C584.642 496.338 585.882 509.519 580.767 520.909C575.277 533.153 563.208 541.324 550.578 545.842C545.644 547.605 540.552 548.887 535.372 549.67C512.372 553.193 487.905 547.177 469.504 532.849C462.608 527.389 456.455 521.053 451.201 514C448.25 510.088 445.499 506.029 442.96 501.838C437.959 493.509 433.41 484.918 429.334 476.1C424.592 466.068 420.109 455.919 415.884 445.653L415.662 445.36C417.008 444.33 418.308 443.26 419.572 442.199C426.672 436.217 433.572 429.699 438.055 421.573C439.612 418.764 440.689 414.854 438.324 412.673C436.931 411.397 434.824 411.292 432.939 411.42C427.989 411.751 423.614 415.484 419.515 418.981L419.515 418.982C418.254 420.058 417.019 421.111 415.802 422.037L415.626 421.85C418.807 418.941 421.859 415.867 424.908 412.796L424.909 412.796C426.46 411.233 428.012 409.67 429.579 408.131C432.857 404.9 436.193 399.972 433.664 396.121C432.164 393.838 429.04 393.089 426.364 393.628C423.688 394.167 421.331 395.723 419.064 397.257C417.412 398.369 415.758 399.485 414.101 400.605C414.476 400.309 414.867 399.997 415.26 399.682L415.264 399.679L415.482 399.505C422.061 394.237 432.327 385.364 427.609 378.376C424.828 374.259 411.506 383.981 400.252 392.194L400.251 392.195C398.384 393.557 396.575 394.878 394.88 396.087L394.189 394.436C393.871 392.971 393.568 391.558 393.275 390.185L393.275 390.185C392.304 385.645 391.429 381.553 390.396 377.545L391.022 377.386ZM444.919 218.363C448.906 216.697 453.304 216.278 457.534 217.161C461.764 218.043 465.627 220.186 468.616 223.307C471.604 226.428 473.577 230.381 474.276 234.645C474.433 235.602 473.784 236.505 472.827 236.662C471.87 236.818 470.967 236.17 470.81 235.213C470.226 231.648 468.577 228.345 466.079 225.736C463.581 223.128 460.352 221.337 456.817 220.599C453.281 219.861 449.605 220.211 446.273 221.603C442.94 222.995 440.107 225.364 438.147 228.397C437.62 229.211 436.533 229.445 435.719 228.918C434.904 228.392 434.671 227.305 435.197 226.49C437.543 222.862 440.932 220.028 444.919 218.363ZM527.306 456.268C531.695 454.301 536.499 453.441 541.298 453.761C546.096 454.082 550.743 455.574 554.832 458.107C558.92 460.64 562.325 464.137 564.748 468.291C567.172 472.445 568.54 477.13 568.733 481.936C568.772 482.905 569.589 483.659 570.558 483.62C571.527 483.581 572.281 482.764 572.242 481.795C572.026 476.416 570.495 471.172 567.782 466.522C565.069 461.871 561.258 457.957 556.681 455.122C552.105 452.287 546.903 450.616 541.532 450.257C536.16 449.898 530.783 450.862 525.87 453.063C524.985 453.459 524.589 454.498 524.985 455.383C525.382 456.268 526.421 456.664 527.306 456.268Z" fill="#171717"/>
<path d="M793.841 841.661L788.877 904.872L258.394 894.958L259.635 835.457L793.841 841.661Z" fill="url(#paint2_linear_46_7777)"/>
<path d="M608.912 327.625L608.889 328.819C580.678 328.14 552.471 327.469 524.268 326.806C522.255 326.759 520.229 326.712 518.193 326.677L518.24 324.605C514.248 319.56 517.503 311.518 523.063 308.275C527.581 305.641 532.943 305.267 538.245 305.384C539.474 305.396 540.691 305.443 541.897 305.484C554.645 306.034 567.397 306.576 580.152 307.111C583.02 307.228 585.888 307.357 588.752 307.474C594.558 307.72 600.752 308.106 605.386 311.583C610.02 315.06 611.824 322.883 607.353 326.59C607.882 326.934 608.4 327.274 608.912 327.625Z" fill="url(#paint3_linear_46_7777)"/>
<path d="M547.047 694.987C564.547 694.987 578.723 704.363 578.723 715.929C578.723 727.495 564.547 736.859 547.047 736.859C529.547 736.859 515.371 727.483 515.371 715.929C515.371 704.375 529.559 694.987 547.047 694.987Z" fill="url(#paint4_linear_46_7777)"/>
<path d="M535.435 550.117C537.1 555.75 537.07 561.749 535.349 567.365C533.627 572.982 530.29 577.967 525.754 581.699C520.936 585.428 515.078 587.568 508.991 587.821C509.491 587.236 509.991 586.627 510.466 586.007C511.999 584.017 513.451 581.734 513.416 579.218C513.369 575.601 510.092 572.639 506.556 571.855C503.02 571.071 499.345 572.007 495.939 573.255C494.154 573.798 492.514 574.734 491.139 575.994C490.461 576.636 489.98 577.459 489.754 578.365C489.528 579.272 489.566 580.223 489.863 581.109C490.507 582.347 491.533 583.344 492.789 583.953C497.698 586.79 503.328 588.133 508.989 587.816C504.323 593.345 498.579 597.866 492.109 601.102V601.324C476.821 601.511 461.509 601.675 446.175 601.816C447.79 573.991 449.558 541.836 451.175 514.023L451.198 514C456.452 521.051 462.604 527.387 469.498 532.846C487.898 547.174 512.365 553.191 535.366 549.667L535.435 550.117Z" fill="url(#paint5_linear_46_7777)"/>
<path d="M534.288 216.782C534.3 217.028 534.311 217.262 534.323 217.508L533.691 217.531C526.527 215.705 522.711 227.984 515.891 225.131C511.466 223.281 511.782 216.715 514.182 212.571C516.582 208.427 520.382 204.705 520.69 199.917C515.223 202.328 506.069 207.35 503.155 202.141C497.817 192.612 523.031 183.201 534.164 178.121C548.305 171.683 563.124 170.231 578.599 170.407L581.28 170.278C582.227 162.133 585.802 154.518 591.464 148.587C592.857 147.135 594.976 145.707 596.732 146.687C598.055 147.436 598.383 149.187 598.476 150.714C598.824 156.179 598.08 161.659 596.287 166.833C600.793 160.853 605.802 155.269 611.259 150.141C613.027 148.49 615.438 146.758 617.659 147.718C620.293 148.842 620.246 152.588 619.45 155.338C617.223 163.024 612.727 169.858 606.55 174.945C617.085 168.814 628.236 163.807 639.818 160.008C642.229 159.224 645.168 158.58 647.076 160.242C647.77 160.962 648.235 161.87 648.414 162.853C648.593 163.836 648.478 164.85 648.083 165.767C647.262 167.594 646.042 169.214 644.513 170.508C633.252 181.348 623.127 189.249 608.061 193.428L607.511 193.159C591.72 192.359 574.992 192.105 559.19 192.503C551.019 192.714 541.608 193.732 537.043 200.51C533.9 205.158 534.042 211.186 534.288 216.782Z" fill="#171717"/>
<path d="M513.417 579.217C513.452 581.734 512.001 584.017 510.467 586.006C509.987 586.626 509.495 587.235 508.992 587.82C503.331 588.136 497.701 586.794 492.792 583.957C491.537 583.348 490.511 582.35 489.866 581.113C489.57 580.228 489.532 579.276 489.758 578.37C489.984 577.464 490.464 576.642 491.141 576C492.517 574.74 494.157 573.804 495.941 573.261C499.347 572.008 503.023 571.072 506.558 571.861C510.093 572.65 513.37 575.6 513.417 579.217Z" fill="url(#paint6_linear_46_7777)"/>
<path d="M442.959 501.842L442.795 501.947C431.323 503.317 419.746 504.429 408.228 503.504C396.71 502.579 385.156 499.547 375.51 493.204C366.136 487.041 358.96 478.063 355.014 467.563C351.067 457.062 350.555 445.58 353.55 434.769C356.15 425.381 367.936 414.038 376.692 409.789L377.453 409.801C377.365 413.269 376.933 416.719 376.165 420.101C370.09 436.782 382.275 453.872 388.608 454.926C398.359 456.565 407.653 451.52 415.66 445.362L415.882 445.655C420.108 455.909 424.591 466.058 429.332 476.102C433.409 484.92 437.958 493.512 442.959 501.842V501.842Z" fill="url(#paint7_linear_46_7777)"/>
<path d="M261.309 829.651L259.635 835.457L258.394 894.957C256.334 895.777 40.666 874.3 40.666 874.3L177 813.977H251.578C254.678 819.069 257.618 824.266 260.533 829.429L261.309 829.651Z" fill="#171717"/>
<path d="M580.186 306.25C578.489 302.231 578.099 297.781 579.072 293.528C580.045 289.276 582.331 285.438 585.607 282.557C589.224 279.514 593.8 277.828 597.651 275.065C609.392 266.637 612.026 250.19 610.797 235.78C609.568 221.37 605.459 208.119 607.777 193.85" stroke="#171717" stroke-width="3.512" stroke-linecap="round" stroke-linejoin="round"/>
<path d="M538.256 304.927C536.945 275.793 535.634 246.654 534.323 217.508C534.311 217.262 534.3 217.028 534.288 216.782C534.042 211.187 533.902 205.158 537.039 200.511C541.604 193.733 551.016 192.711 559.186 192.504C574.986 192.104 591.716 192.364 607.507 193.16" stroke="#171717" stroke-width="3.512" stroke-linecap="round" stroke-linejoin="round"/>
<path d="M580.924 170.438C580.151 170.426 579.367 170.403 578.595 170.403C563.12 170.227 548.295 171.679 534.16 178.117C523.028 183.197 497.814 192.609 503.151 202.137C506.066 207.346 515.22 202.324 520.686 199.913C520.386 204.701 516.586 208.413 514.178 212.567C511.77 216.721 511.462 223.278 515.887 225.127C522.711 227.983 526.528 215.704 533.687 217.527" stroke="#171717" stroke-width="3.512" stroke-linecap="round" stroke-linejoin="round"/>
<path d="M566.807 250.659C569.101 252.953 573.362 251.49 575.001 248.692C576.64 245.894 576.417 242.418 576.16 239.192C575.177 227.192 574.198 215.192 573.222 203.192C580.796 202.876 588.365 202.552 595.931 202.22" stroke="#171717" stroke-width="3.512" stroke-linecap="round" stroke-linejoin="round"/>
<path d="M597.558 219.908C596.045 218.781 594.195 218.199 592.309 218.259C590.423 218.319 588.614 219.015 587.175 220.236" stroke="#171717" stroke-width="3.512" stroke-linecap="round" stroke-linejoin="round"/>
<path d="M560.401 219.873C558.411 216.127 552.264 215.694 549.771 219.124" stroke="#171717" stroke-width="3.512" stroke-linecap="round" stroke-linejoin="round"/>
<path d="M562.066 266.964C555.944 269.223 548.323 264.4 547.75 257.904" stroke="#171717" stroke-width="3.512" stroke-linecap="round" stroke-linejoin="round"/>
<path d="M415.884 445.653C420.11 455.907 424.593 466.056 429.334 476.1" stroke="#171717" stroke-width="3.512" stroke-linecap="round" stroke-linejoin="round"/>
<path d="M382.02 344.352C385.064 355.683 388.06 366.394 391.02 377.386C392.495 382.853 393.958 388.378 395.42 394.086" stroke="#171717" stroke-width="3.512" stroke-linecap="round" stroke-linejoin="round"/>
<path d="M429.334 476.1C433.41 484.919 437.958 493.512 442.96 501.841C445.499 506.031 448.25 510.089 451.2 514C456.454 521.051 462.606 527.387 469.5 532.846C487.9 547.174 512.367 553.191 535.368 549.667C540.548 548.884 545.641 547.602 550.574 545.839C563.205 541.321 575.274 533.15 580.763 520.906C585.878 509.516 584.638 496.336 582.273 484.056C579.206 468.101 572.885 450.613 558.054 443.987C536.948 434.552 511.465 452.497 489.774 444.502C480.526 441.096 476.956 433.302 472.368 424.579C466.726 413.856 441.991 366.12 443.279 350.552C443.495 347.933 443.894 345.332 444.473 342.768C447.405 329.835 454.604 318.266 464.911 309.922C473.07 303.39 483.195 298.872 489.119 290.256C499.186 275.6 493.228 255.619 485.771 239.476C480.539 228.145 473.671 216.135 461.903 211.956C446.522 206.501 430.297 216.697 417.632 226.986C401.115 240.377 384.856 255.759 378.132 275.94C370.816 297.94 376.013 321.955 382.018 344.349" stroke="#171717" stroke-width="3.512" stroke-linecap="round" stroke-linejoin="round"/>
<path d="M443.533 343.473C443.849 343.227 444.153 342.993 444.469 342.773C464.931 327.45 492.269 326.256 518.192 326.678C520.229 326.713 522.254 326.76 524.267 326.807C552.467 327.474 580.674 328.145 608.888 328.82C621.46 329.114 634.027 329.41 646.588 329.71C667.155 330.202 689.279 330.248 706.182 318.51C717.841 310.421 725.403 297.71 731.455 284.879C745.554 254.99 753.414 222.54 754.555 189.512C754.955 178.087 754.824 165.702 761.672 156.56C765.617 151.281 771.119 148.026 777.323 146.036C785.716 143.32 795.432 142.899 804.375 142.852C813.623 142.805 823.994 143.344 832.047 147.195C836.146 149.048 839.61 152.064 842.009 155.869C846.972 163.934 845.79 174.2 844.327 183.569C838.895 218.629 832.2 253.462 824.24 288.069C817.755 316.257 809.994 345.205 791.862 367.75C762.562 404.178 712.169 416.423 665.428 416.879" stroke="#171717" stroke-width="3.512" stroke-linecap="round" stroke-linejoin="round"/>
<path d="M665.592 409.928C665.533 412.234 665.475 414.552 665.416 416.87C663.929 476.16 662.431 540.998 660.944 599.831" stroke="#171717" stroke-width="3.512" stroke-linecap="round" stroke-linejoin="round"/>
<path d="M451.177 514.027C449.562 541.84 447.794 573.996 446.177 601.82V601.832" stroke="#171717" stroke-width="3.512" stroke-linecap="round" stroke-linejoin="round"/>
<path d="M376.166 420.099C376.934 416.717 377.365 413.267 377.454 409.799C377.747 396.642 372.678 388.399 374.972 375.325C375.92 369.917 379.9 363.783 384.852 361.407C387.13 366.629 388.982 372.028 390.389 377.549C391.735 382.77 392.812 388.131 394.182 394.44" stroke="#171717" stroke-width="3.512" stroke-linecap="round" stroke-linejoin="round"/>
<path d="M391.84 398.211C392.8 397.555 393.807 396.853 394.872 396.092C406.788 387.592 424.359 373.582 427.601 378.381C432.318 385.369 422.052 394.242 415.474 399.51C415.006 399.885 414.538 400.259 414.093 400.61C408.264 405.175 404.085 407.821 396.745 412.69" stroke="#171717" stroke-width="3.512" stroke-linecap="round" stroke-linejoin="round"/>
<path d="M396.733 412.3C402.527 408.402 408.314 404.504 414.093 400.606C415.755 399.482 417.41 398.366 419.056 397.258C421.327 395.725 423.668 394.168 426.356 393.629C429.044 393.09 432.162 393.84 433.656 396.122C436.184 399.973 432.848 404.901 429.571 408.132C424.924 412.697 420.417 417.462 415.618 421.851C411.816 425.421 407.68 428.62 403.268 431.403" stroke="#171717" stroke-width="3.512" stroke-linecap="round" stroke-linejoin="round"/>
<path d="M415.8 422.044C420.974 418.111 426.464 411.859 432.937 411.426C434.822 411.297 436.929 411.403 438.322 412.679C440.687 414.856 439.61 418.766 438.053 421.579C433.57 429.703 426.675 436.223 419.57 442.205C418.306 443.27 417.006 444.336 415.66 445.367C407.653 451.524 398.36 456.566 388.608 454.93C382.275 453.876 370.089 436.786 376.165 420.105" stroke="#171717" stroke-width="3.512" stroke-linecap="round" stroke-linejoin="round"/>
<path d="M518.239 324.605C514.247 319.56 517.502 311.518 523.062 308.275C527.58 305.641 532.942 305.267 538.244 305.384C539.473 305.396 540.69 305.443 541.896 305.484C554.644 306.034 567.396 306.576 580.151 307.111C583.019 307.228 585.887 307.357 588.751 307.474C594.557 307.72 600.751 308.106 605.385 311.583C610.019 315.06 611.823 322.883 607.352 326.59C607.879 326.929 608.394 327.269 608.909 327.62" stroke="#171717" stroke-width="3.512" stroke-linecap="round" stroke-linejoin="round"/>
<path d="M777.136 145.471C770.276 140.121 763.3 134.655 758.442 127.444C757.313 125.896 756.486 124.148 756.007 122.293C755.705 121.281 755.673 120.208 755.914 119.18C756.155 118.152 756.662 117.205 757.383 116.433C758.104 115.661 759.014 115.092 760.023 114.781C761.032 114.47 762.105 114.429 763.136 114.661C765.371 115.06 767.485 115.965 769.317 117.307C773.371 119.979 776.902 123.371 779.735 127.315" stroke="#171717" stroke-width="3.512" stroke-linecap="round" stroke-linejoin="round"/>
<path d="M779.911 127.538V127.316C779.49 105.403 779.138 83.1156 785.311 62.0906C785.699 60.4078 786.412 58.8172 787.411 57.4086C787.919 56.709 788.602 56.1557 789.393 55.8046C790.183 55.4534 791.051 55.3169 791.911 55.4086C794.779 55.9006 795.938 59.3536 796.371 62.2326C797.518 69.8526 797.588 77.5786 797.647 85.2696C797.741 95.9563 797.831 106.64 797.916 117.32C797.939 120.246 797.963 123.161 797.986 126.088" stroke="#171717" stroke-width="3.512" stroke-linecap="round" stroke-linejoin="round"/>
<path d="M832.06 147.168C835.127 134.315 837.211 121.158 837.234 107.942C837.234 104.91 837.105 101.75 835.724 99.0419C834.343 96.3339 831.393 94.2079 828.408 94.7229C824.967 95.3079 822.977 98.8789 821.724 102.133C820.555 105.186 819.593 108.315 818.844 111.498C817.574 116.962 816.953 122.557 816.994 128.167" stroke="#171717" stroke-width="3.512" stroke-linecap="round" stroke-linejoin="round"/>
<path d="M818.364 112.471C818.434 112.132 818.516 111.78 818.586 111.441C819.203 108.868 819.521 106.233 819.534 103.586C819.572 100.559 818.539 97.6159 816.619 95.2754C815.645 94.1304 814.363 93.2891 812.925 92.8512C811.487 92.4134 809.954 92.3975 808.507 92.8054C805.826 93.7304 804.071 96.2934 802.783 98.8334C799.897 104.568 798.39 110.897 798.383 117.316V117.609" stroke="#171717" stroke-width="3.512" stroke-linecap="round" stroke-linejoin="round"/>
<path d="M376.693 409.788C367.937 414.037 356.149 425.38 353.551 434.768C350.556 445.579 351.068 457.061 355.015 467.562C358.961 478.063 366.137 487.04 375.511 493.203C385.157 499.548 396.711 502.591 408.229 503.503C419.747 504.415 431.329 503.316 442.796 501.946" stroke="#171717" stroke-width="3.512" stroke-linecap="round" stroke-linejoin="round"/>
<path d="M355.6 602.371C346.54 602.863 336 601.692 326.57 603.682" stroke="#171717" stroke-width="3.512" stroke-linecap="round" stroke-linejoin="round"/>
<path d="M679.311 599.948C673.178 599.901 667.056 599.877 660.945 599.878C604.383 599.726 548.345 600.639 492.112 601.33C476.824 601.517 461.513 601.681 446.178 601.822C435.316 601.916 424.433 601.986 413.531 602.033H413.074" stroke="#171717" stroke-width="3.512" stroke-linecap="round" stroke-linejoin="round"/>
<path d="M759.133 599.972C752.179 599.936 745.226 599.909 738.273 599.89H737.973" stroke="#171717" stroke-width="3.512" stroke-linecap="round" stroke-linejoin="round"/>
<path d="M326.569 603.682L303.473 683.645L265.804 814.094L261.309 829.651L259.635 835.457L793.841 841.661L759.133 599.972" stroke="#171717" stroke-width="3.512" stroke-linecap="round" stroke-linejoin="round"/>
<path d="M259.635 835.457L258.394 894.958L788.877 904.872L793.841 841.661" stroke="#171717" stroke-width="3.512" stroke-linecap="round" stroke-linejoin="round"/>
<path d="M695.091 563.612C690.691 575.938 685.012 586.766 679.312 599.947" stroke="#171717" stroke-width="3.512" stroke-linecap="round" stroke-linejoin="round"/>
<path d="M748.808 568.565L783.508 561.965L786.821 534.691L751.282 535.522C751.282 535.522 747.162 555.922 728.151 556.183C706.94 556.452 707.49 533.872 707.49 533.872L671.963 534.691L672.782 552.87L695.093 563.616" stroke="#171717" stroke-width="3.512" stroke-linecap="round" stroke-linejoin="round"/>
<path d="M738.273 599.655C741.703 589.014 745.367 579.217 748.808 568.564" stroke="#171717" stroke-width="3.512" stroke-linecap="round" stroke-linejoin="round"/>
<path d="M397.213 563.612C402.703 575.891 406.742 588.912 413.531 602.03L413.601 602.171" stroke="#171717" stroke-width="3.512" stroke-linecap="round" stroke-linejoin="round"/>
<path d="M343.507 568.565L308.799 561.965L305.499 534.691L341.026 535.522C341.026 535.522 345.158 555.922 364.168 556.183C385.379 556.452 384.817 533.872 384.817 533.872L420.356 534.691L419.525 552.87L397.214 563.616" stroke="#171717" stroke-width="3.512" stroke-linecap="round" stroke-linejoin="round"/>
<path d="M355.6 602.37C351.8 590.594 347.312 580.351 343.508 568.564" stroke="#171717" stroke-width="3.512" stroke-linecap="round" stroke-linejoin="round"/>
<path d="M258.394 894.958C256.334 895.777 40.666 874.3 40.666 874.3L177 813.977H265.414" stroke="#171717" stroke-width="3.512" stroke-linecap="round" stroke-linejoin="round"/>
<path d="M265.418 688.853C270.563 688.884 275.692 688.29 280.694 687.085C287.952 685.528 295.186 683.503 302.619 683.398" stroke="#171717" stroke-width="3.512" stroke-linecap="round" stroke-linejoin="round"/>
<path d="M265.418 688.853C265.488 688.771 265.558 688.701 265.629 688.619C271.014 682.485 275.415 674.338 273.437 666.425C271.447 658.477 262.457 653.025 254.497 654.942C246.537 656.859 241.024 665.828 242.908 673.8C244.629 681.022 251.418 686.208 258.629 687.964C260.854 688.498 263.13 688.796 265.418 688.853V688.853Z" stroke="#171717" stroke-width="3.512" stroke-linecap="round" stroke-linejoin="round"/>
<path d="M216.183 714.279C219.215 713.763 222.231 713.116 225.232 712.336C240.461 708.356 254.976 700.63 265.418 688.854" stroke="#171717" stroke-width="3.512" stroke-linecap="round" stroke-linejoin="round"/>
<path d="M216.183 714.279C213.183 706.436 205.273 701.356 197.395 698.219C189.201 694.965 179.883 693.119 171.642 696.241C167.065 697.985 162.675 702.199 163.436 707.034C164.384 713.062 171.936 715.088 178.021 715.544C190.747 716.515 203.635 716.433 216.183 714.279Z" stroke="#171717" stroke-width="3.512" stroke-linecap="round" stroke-linejoin="round"/>
<path d="M205.765 741.142C214.1 735.465 219.578 724.824 216.534 715.272C216.434 714.933 216.312 714.605 216.183 714.272" stroke="#171717" stroke-width="3.512" stroke-linecap="round" stroke-linejoin="round"/>
<path d="M205.765 741.142C195.471 735.574 183.81 733.038 172.134 733.826C168.201 734.107 163.39 735.605 162.804 739.503C162.418 741.985 164.127 744.419 166.316 745.649C168.587 746.733 171.068 747.309 173.585 747.335C184.144 748.084 195.276 747.429 204.371 742.035C204.84 741.751 205.309 741.459 205.765 741.142Z" stroke="#171717" stroke-width="3.512" stroke-linecap="round" stroke-linejoin="round"/>
<path d="M215.141 774.844C218.981 771.227 222.047 766.685 222.164 761.511C222.34 754.101 216.487 747.944 210.306 743.859C208.831 742.887 207.321 741.974 205.764 741.143" stroke="#171717" stroke-width="3.512" stroke-linecap="round" stroke-linejoin="round"/>
<path d="M215.141 774.843C204.067 768.592 191.413 765.42 179.052 767.773C175.177 768.51 171.244 769.873 168.47 772.673C165.696 775.473 164.396 780.024 166.258 783.501C168.447 787.601 173.785 788.687 178.42 788.722C190.766 788.791 202.775 784.696 212.507 777.099C213.409 776.399 214.3 775.639 215.141 774.843Z" stroke="#171717" stroke-width="3.512" stroke-linecap="round" stroke-linejoin="round"/>
<path d="M260.536 829.429C257.621 824.267 254.683 819.069 251.581 813.977C245.155 803.418 238.026 793.328 228.965 784.958C224.76 781.067 220.121 777.673 215.14 774.844" stroke="#171717" stroke-width="3.512" stroke-linecap="round" stroke-linejoin="round"/>
<path d="M508.992 587.82C515.079 587.566 520.937 585.427 525.755 581.698C530.291 577.966 533.628 572.981 535.35 567.364C537.071 561.748 537.101 555.749 535.436 550.116" stroke="#171717" stroke-width="3.512" stroke-linecap="round" stroke-linejoin="round"/>
<path d="M508.992 587.821C509.492 587.236 509.992 586.627 510.467 586.007C512 584.017 513.452 581.734 513.417 579.218C513.37 575.601 510.093 572.639 506.557 571.855C503.021 571.071 499.346 572.007 495.94 573.255C494.155 573.798 492.515 574.734 491.14 575.994C490.462 576.636 489.981 577.459 489.755 578.365C489.529 579.271 489.567 580.223 489.864 581.109C490.508 582.347 491.534 583.344 492.79 583.953C497.698 586.792 503.329 588.136 508.992 587.821V587.821Z" stroke="#171717" stroke-width="3.512" stroke-linecap="round" stroke-linejoin="round"/>
<path d="M492.112 601.106C498.583 597.87 504.326 593.349 508.992 587.82" stroke="#171717" stroke-width="3.512" stroke-linecap="round" stroke-linejoin="round"/>
<path d="M666.306 715.929C666.306 760.341 612.916 796.348 547.047 796.348C481.178 796.348 427.789 760.341 427.789 715.929C427.789 671.517 481.179 635.499 547.048 635.499C612.917 635.499 666.306 671.506 666.306 715.929Z" stroke="#171717" stroke-width="3.512" stroke-linecap="round" stroke-linejoin="round"/>
<path d="M578.723 715.928C578.723 727.482 564.547 736.858 547.047 736.858C529.547 736.858 515.371 727.482 515.371 715.928C515.371 704.374 529.558 694.986 547.047 694.986C564.536 694.986 578.723 704.363 578.723 715.928Z" stroke="#171717" stroke-width="3.512" stroke-linecap="round" stroke-linejoin="round"/>
<path d="M464 179.651C467.91 171.518 471.824 163.379 475.741 155.233" stroke="#171717" stroke-width="3.512" stroke-linecap="round" stroke-linejoin="round"/>
<path d="M437.107 177.451C436.347 152.295 435.582 127.145 434.813 102" stroke="#171717" stroke-width="3.512" stroke-linecap="round" stroke-linejoin="round"/>
<path d="M415.018 182.391L398.829 163.291" stroke="#171717" stroke-width="3.512" stroke-linecap="round" stroke-linejoin="round"/>
<path d="M752.578 420.954C765.541 418.908 777.887 414.006 788.724 406.604C799.561 399.202 808.618 389.485 815.239 378.154" stroke="#171717" stroke-width="3.512" stroke-linecap="round" stroke-linejoin="round"/>
<path d="M818.625 500.813L834.738 476.024" stroke="#171717" stroke-width="3.512" stroke-linecap="round" stroke-linejoin="round"/>
<path d="M836.078 499.475L815.16 478.254" stroke="#171717" stroke-width="3.512" stroke-linecap="round" stroke-linejoin="round"/>
<path d="M354.629 316.3C351.75 308.143 350.754 299.44 351.718 290.843C352.682 282.247 355.579 273.98 360.193 266.663" stroke="#171717" stroke-width="3.512" stroke-linecap="round" stroke-linejoin="round"/>
<path d="M615.737 115.115C615.217 108.709 614.697 102.303 614.178 95.8975" stroke="#171717" stroke-width="3.512" stroke-linecap="round" stroke-linejoin="round"/>
<path d="M603.547 106.143L620.88 103" stroke="#171717" stroke-width="3.512" stroke-linecap="round" stroke-linejoin="round"/>
<path d="M685.911 161.675C684.019 152.813 682.125 143.952 680.231 135.092" stroke="#171717" stroke-width="3.512" stroke-linecap="round" stroke-linejoin="round"/>
<path d="M669.021 153.026L692.545 145.209" stroke="#171717" stroke-width="3.512" stroke-linecap="round" stroke-linejoin="round"/>
<path d="M596.3 308.699L595.25 327.714" stroke="#171717" stroke-width="3.512" stroke-linecap="round" stroke-linejoin="round"/>
<path d="M583.19 307.049C583.092 313.571 582.361 320.068 581.005 326.449" stroke="#171717" stroke-width="3.512" stroke-linecap="round" stroke-linejoin="round"/>
<path d="M568.984 307.453L567.2 327.167C567.223 326.791 567.247 326.415 567.27 326.038" stroke="#171717" stroke-width="3.512" stroke-linecap="round" stroke-linejoin="round"/>
<path d="M550.171 307.459C550.129 313.901 550.087 320.343 550.044 326.785C550.056 326.403 550.068 326.022 550.081 325.64" stroke="#171717" stroke-width="3.512" stroke-linecap="round" stroke-linejoin="round"/>
<path d="M534.1 305.407L535.009 326.061" stroke="#171717" stroke-width="3.512" stroke-linecap="round" stroke-linejoin="round"/>
<path d="M522.893 308.69C523.574 314.338 524.255 319.985 524.937 325.632" stroke="#171717" stroke-width="3.512" stroke-linecap="round" stroke-linejoin="round"/>
<path d="M793.974 294.792L801.686 283.224" stroke="#171717" stroke-width="3.512" stroke-linecap="round" stroke-linejoin="round"/>
<path d="M748.246 306.933L738.931 304.533" stroke="#171717" stroke-width="3.512" stroke-linecap="round" stroke-linejoin="round"/>
<path d="M781.768 188.059L774.081 183.059" stroke="#171717" stroke-width="3.512" stroke-linecap="round" stroke-linejoin="round"/>
<path d="M809.388 162.143L819.867 163.114" stroke="#171717" stroke-width="3.512" stroke-linecap="round" stroke-linejoin="round"/>
<path d="M804.44 254.578V241.908" stroke="#171717" stroke-width="3.512" stroke-linecap="round" stroke-linejoin="round"/>
<path d="M715.788 392.281C714.499 388.609 713.211 384.938 711.922 381.267" stroke="#171717" stroke-width="3.512" stroke-linecap="round" stroke-linejoin="round"/>
<path d="M670.03 359.242C669.663 354.836 669.296 350.429 668.93 346.021" stroke="#171717" stroke-width="3.512" stroke-linecap="round" stroke-linejoin="round"/>
<path d="M612.209 396.207L623.785 392.375" stroke="#171717" stroke-width="3.512" stroke-linecap="round" stroke-linejoin="round"/>
<path d="M610.465 371.389L604.972 357.611" stroke="#171717" stroke-width="3.512" stroke-linecap="round" stroke-linejoin="round"/>
<path d="M537.9 415.663L525.186 419.94" stroke="#171717" stroke-width="3.512" stroke-linecap="round" stroke-linejoin="round"/>
<path d="M493.2 389.006L482.733 388.46" stroke="#171717" stroke-width="3.512" stroke-linecap="round" stroke-linejoin="round"/>
<path d="M494.406 422.028C494.032 418.724 493.659 415.42 493.286 412.115" stroke="#171717" stroke-width="3.512" stroke-linecap="round" stroke-linejoin="round"/>
<path d="M484.941 355.385C486.439 351.333 488.681 347.597 491.551 344.368" stroke="#171717" stroke-width="3.512" stroke-linecap="round" stroke-linejoin="round"/>
<path d="M580.24 442.422C580.199 437.512 581.136 432.644 582.994 428.1" stroke="#171717" stroke-width="3.512" stroke-linecap="round" stroke-linejoin="round"/>
<path d="M612.191 504.668L602.826 500.812" stroke="#171717" stroke-width="3.512" stroke-linecap="round" stroke-linejoin="round"/>
<path d="M626.99 476.536L633.068 464.979" stroke="#171717" stroke-width="3.512" stroke-linecap="round" stroke-linejoin="round"/>
<path d="M644.547 568.086C642.561 563.847 640.575 559.608 638.588 555.369" stroke="#171717" stroke-width="3.512" stroke-linecap="round" stroke-linejoin="round"/>
<path d="M605.614 547.664C607.966 544.639 610.914 542.128 614.275 540.287" stroke="#171717" stroke-width="3.512" stroke-linecap="round" stroke-linejoin="round"/>
<path d="M480.534 560.857L470.619 567.467" stroke="#171717" stroke-width="3.512" stroke-linecap="round" stroke-linejoin="round"/>
<path d="M420.49 495.305L411.676 487.593" stroke="#171717" stroke-width="3.512" stroke-linecap="round" stroke-linejoin="round"/>
<path d="M368.416 465.504C367.465 460.96 366.514 456.414 365.564 451.868" stroke="#171717" stroke-width="3.512" stroke-linecap="round" stroke-linejoin="round"/>
<path d="M644.247 427.713L635.569 417.799" stroke="#171717" stroke-width="3.512" stroke-linecap="round" stroke-linejoin="round"/>
<path d="M558.911 328.344C554.2 365.807 553.337 403.655 556.337 441.294" stroke="#171717" stroke-width="3.512" stroke-linecap="round" stroke-linejoin="round"/>
<path d="M555.548 545.436L554.231 600.517" stroke="#171717" stroke-width="3.512" stroke-linecap="round" stroke-linejoin="round"/>
<path d="M745.5 371.912L755.966 366.954" stroke="#171717" stroke-width="3.512" stroke-linecap="round" stroke-linejoin="round"/>
<path d="M774.658 340.519C773.919 336.481 773.18 332.442 772.44 328.403" stroke="#171717" stroke-width="3.512" stroke-linecap="round" stroke-linejoin="round"/>
<path d="M709.709 341.483L718.519 342.614" stroke="#171717" stroke-width="3.512" stroke-linecap="round" stroke-linejoin="round"/>
<path d="M767.076 258.414C766.168 254.188 765.261 249.963 764.354 245.737" stroke="#171717" stroke-width="3.512" stroke-linecap="round" stroke-linejoin="round"/>
<path d="M652.86 372.028L644.627 365.38" stroke="#171717" stroke-width="3.512" stroke-linecap="round" stroke-linejoin="round"/>
<path d="M574.212 394.009L586.937 387.509" stroke="#171717" stroke-width="3.512" stroke-linecap="round" stroke-linejoin="round"/>
<path d="M526.772 382.926C527.318 377.784 527.862 372.642 528.406 367.5" stroke="#171717" stroke-width="3.512" stroke-linecap="round" stroke-linejoin="round"/>
<path d="M585.2 583.993C582.078 580.504 578.956 577.015 575.835 573.527" stroke="#171717" stroke-width="3.512" stroke-linecap="round" stroke-linejoin="round"/>
<path d="M668.955 108.405L668.562 120.536C668.55 120.903 668.427 121.256 668.208 121.55C667.989 121.844 667.685 122.063 667.337 122.179C666.99 122.294 666.615 122.301 666.264 122.197C665.912 122.093 665.601 121.884 665.372 121.598L657.784 112.125C657.562 111.849 657.263 111.644 656.925 111.537C656.587 111.43 656.225 111.426 655.884 111.525L644.229 114.899C643.877 115.003 643.502 114.995 643.154 114.878C642.806 114.761 642.502 114.54 642.284 114.245C642.066 113.95 641.944 113.595 641.934 113.228C641.924 112.861 642.027 112.5 642.229 112.193L648.9 102.048C649.095 101.752 649.197 101.405 649.195 101.051C649.192 100.697 649.084 100.351 648.885 100.058L642.07 90.0134C641.864 89.7103 641.756 89.3513 641.761 88.9849C641.765 88.6186 641.882 88.2623 642.095 87.9643C642.308 87.6663 642.608 87.4407 642.953 87.3181C643.298 87.1954 643.673 87.1816 644.026 87.2784L655.733 90.4784C656.075 90.5719 656.437 90.562 656.773 90.4501C657.109 90.3381 657.404 90.1291 657.621 89.8494L665.07 80.2664C665.296 79.979 665.603 79.7674 665.952 79.6597C666.301 79.5521 666.675 79.5536 667.023 79.6641C667.371 79.7746 667.677 79.9888 667.9 80.278C668.123 80.5673 668.252 80.9177 668.27 81.2824L668.841 93.4064C668.858 93.7599 668.979 94.1005 669.189 94.3853C669.4 94.67 669.689 94.8862 670.022 95.0064L681.437 99.1294C681.782 99.2538 682.08 99.4807 682.292 99.7797C682.503 100.079 682.618 100.435 682.621 100.802C682.624 101.168 682.514 101.526 682.307 101.828C682.1 102.131 681.805 102.362 681.462 102.491L670.108 106.78C669.777 106.908 669.492 107.13 669.286 107.419C669.081 107.708 668.966 108.051 668.955 108.405Z" fill="#171717"/>
<path d="M829.992 544.755L855.81 538.791" stroke="#171717" stroke-width="3.512" stroke-linecap="round" stroke-linejoin="round"/>
<path d="M844.174 554.99C842.619 545.923 841.064 536.857 839.508 527.79" stroke="#171717" stroke-width="3.512" stroke-linecap="round" stroke-linejoin="round"/>
<path d="M327.876 231.291C311.566 218.727 289.022 214.178 269.505 220.731C249.988 227.284 234.443 245.256 232.055 265.704C229.667 286.152 241.343 307.825 260.255 315.955C266.342 318.571 275.855 318.036 276.77 311.474C276.92 309.718 276.588 307.955 275.81 306.374C268.966 290.507 243.849 289.053 232.603 302.174C221.357 315.295 223.909 336.624 235.267 349.647C241.976 357.34 251.017 362.57 260.052 367.32C269.087 372.07 278.399 376.553 286.169 383.172C293.939 389.791 300.136 398.988 300.669 409.181C301.202 419.374 294.769 430.227 284.805 432.451C274.841 434.675 263.431 425.351 265.505 415.351" stroke="#171717" stroke-width="3.512" stroke-linecap="round" stroke-linejoin="round"/>
<path d="M881.527 272.114C892.226 283.409 900.655 296.655 906.356 311.13C910.315 321.2 912.923 332.304 910.379 342.82C907.835 353.336 898.936 362.885 888.123 363.253C877.31 363.621 867.033 351.886 871.069 341.848C872.076 339.353 873.78 337.201 875.978 335.648C885.058 329.261 898.758 336.61 902.223 347.157C905.688 357.704 901.768 369.257 896.462 379.005C891.156 388.753 884.362 397.911 881.462 408.629C874.837 433.178 890.418 458.329 908.872 475.829" stroke="#171717" stroke-width="3.512" stroke-linecap="round" stroke-linejoin="round"/>
<path d="M224.935 380.175L208.409 365.3" stroke="#171717" stroke-width="3.512" stroke-linecap="round" stroke-linejoin="round"/>
<path d="M206.33 383.227L218.043 363.482" stroke="#171717" stroke-width="3.512" stroke-linecap="round" stroke-linejoin="round"/>
<path d="M905.8 400.006L920.673 393.396" stroke="#171717" stroke-width="3.512" stroke-linecap="round" stroke-linejoin="round"/>
<path d="M915.714 408.269L909.104 388.438" stroke="#171717" stroke-width="3.512" stroke-linecap="round" stroke-linejoin="round"/>
<path d="M546.637 679.286C557.894 679.286 567.019 672.89 567.019 665.001C567.019 657.111 557.894 650.716 546.637 650.716C535.38 650.716 526.255 657.111 526.255 665.001C526.255 672.89 535.38 679.286 546.637 679.286Z" stroke="#171717" stroke-width="3.512" stroke-linecap="round" stroke-linejoin="round"/>
<path d="M547.808 784.638C559.064 784.638 568.19 778.243 568.19 770.353C568.19 762.464 559.064 756.068 547.808 756.068C536.551 756.068 527.426 762.464 527.426 770.353C527.426 778.243 536.551 784.638 547.808 784.638Z" stroke="#171717" stroke-width="3.512" stroke-linecap="round" stroke-linejoin="round"/>
<path d="M464.697 727.28C475.954 727.28 485.079 720.884 485.079 712.995C485.079 705.106 475.954 698.71 464.697 698.71C453.441 698.71 444.315 705.106 444.315 712.995C444.315 720.884 453.441 727.28 464.697 727.28Z" stroke="#171717" stroke-width="3.512" stroke-linecap="round" stroke-linejoin="round"/>
<path d="M628.578 727.28C639.835 727.28 648.96 720.884 648.96 712.995C648.96 705.106 639.835 698.71 628.578 698.71C617.322 698.71 608.196 705.106 608.196 712.995C608.196 720.884 617.322 727.28 628.578 727.28Z" stroke="#171717" stroke-width="3.512" stroke-linecap="round" stroke-linejoin="round"/>
<path d="M601.655 692.163C612.912 692.163 622.037 685.767 622.037 677.878C622.037 669.988 612.912 663.593 601.655 663.593C590.399 663.593 581.273 669.988 581.273 677.878C581.273 685.767 590.399 692.163 601.655 692.163Z" stroke="#171717" stroke-width="3.512" stroke-linecap="round" stroke-linejoin="round"/>
<path d="M489.279 767.08C500.536 767.08 509.661 760.684 509.661 752.795C509.661 744.905 500.536 738.51 489.279 738.51C478.023 738.51 468.897 744.905 468.897 752.795C468.897 760.684 478.023 767.08 489.279 767.08Z" stroke="#171717" stroke-width="3.512" stroke-linecap="round" stroke-linejoin="round"/>
<path d="M489.279 689.822C500.536 689.822 509.661 683.426 509.661 675.537C509.661 667.648 500.536 661.252 489.279 661.252C478.023 661.252 468.897 667.648 468.897 675.537C468.897 683.426 478.023 689.822 489.279 689.822Z" stroke="#171717" stroke-width="3.512" stroke-linecap="round" stroke-linejoin="round"/>
<path d="M602.825 767.08C614.082 767.08 623.207 760.684 623.207 752.795C623.207 744.905 614.082 738.51 602.825 738.51C591.569 738.51 582.443 744.905 582.443 752.795C582.443 760.684 591.569 767.08 602.825 767.08Z" stroke="#171717" stroke-width="3.512" stroke-linecap="round" stroke-linejoin="round"/>
<path d="M269.776 814.534H250.717V828.299H269.776V814.534Z" fill="#171717"/>
<g opacity="0.1">
<path d="M525.947 307.988C519.694 307.97 518.238 314.87 515.925 319.373L519.584 316.56C516.884 317.697 515.366 319.86 512.81 320.975C510.586 321.942 507.91 322.01 505.524 322.189C498.184 322.646 490.896 323.718 483.736 325.395C476.433 327.234 469.311 329.727 462.456 332.843C455.756 335.856 448.11 339.243 442.576 344.091C434.344 351.307 445.06 365.145 454.276 359.257C458.136 356.791 461.269 353.43 465.147 350.93C476.066 343.959 488.327 339.357 501.137 337.423C508.099 336.305 515.506 336.277 521.565 332.173C523.235 331.076 524.682 329.671 525.828 328.032C527.445 325.651 526.864 324.303 527.241 321.732C527.607 322.92 527.774 322.622 527.741 320.84C527.869 319.703 527.869 318.554 527.741 317.416C528.034 315.569 528.441 313.741 528.96 311.943C529.078 311.48 529.09 310.997 528.995 310.528C528.9 310.06 528.701 309.619 528.411 309.239C528.121 308.859 527.75 308.549 527.323 308.334C526.897 308.118 526.427 308.001 525.95 307.992L525.947 307.988Z" fill="#171717"/>
</g>
<g opacity="0.1">
<path d="M352.286 434.51C342.516 453.496 356.354 478.404 371.13 490.557C389.385 505.571 415.421 509.673 437.623 501.802C443.013 499.89 446.617 494.571 445.023 488.77C443.589 483.55 437.41 479.45 431.992 481.37C423.963 484.256 415.351 485.14 406.903 483.944C398.455 482.747 390.427 479.507 383.516 474.505C377.142 469.843 371.871 463.838 368.074 456.915C363.974 449.623 361.032 441.824 356.982 434.509C356.738 434.104 356.394 433.769 355.982 433.536C355.571 433.304 355.107 433.182 354.634 433.182C354.162 433.182 353.697 433.304 353.286 433.536C352.875 433.769 352.53 434.104 352.287 434.509L352.286 434.51Z" fill="#171717"/>
</g>
<g opacity="0.1">
<path d="M453.035 517.881C447.265 520.745 446.929 528.945 446.576 534.603C446.144 541.522 446.198 548.509 446.186 555.438C446.163 568.999 446.296 582.556 446.428 596.116C446.557 609.321 467.134 609.351 466.959 596.116C466.759 581.231 466.536 566.351 466.169 551.469C466.006 544.869 467.104 510.898 453.035 517.881V517.881Z" fill="#171717"/>
</g>
<g opacity="0.1">
<path d="M545.6 301.059C546.523 282.69 545.8 264.319 545.331 245.945C545.093 236.76 544.81 227.575 544.619 218.388C544.396 214.843 544.578 211.285 545.162 207.782C545.823 204.654 547.362 201.73 548.38 198.706C549.357 195.798 546.014 194.076 543.697 195.106C537.134 198.025 536.066 205.968 535.788 212.461C535.382 221.93 536.211 231.555 536.503 241.023C537.12 261.052 537.376 281.123 539.503 301.058C539.913 304.898 545.396 305.05 545.596 301.058L545.6 301.059Z" fill="#171717"/>
</g>
</g>
</g>
<defs>
<linearGradient id="paint0_linear_46_7777" x1="547.048" y1="635.5" x2="547.048" y2="796.349" gradientUnits="userSpaceOnUse">
<stop stop-color="#FFB800"/>
<stop offset="1" stop-color="#FF7F0A"/>
</linearGradient>
<linearGradient id="paint1_linear_46_7777" x1="644.412" y1="142.846" x2="644.412" y2="601.33" gradientUnits="userSpaceOnUse">
<stop stop-color="#FFB800"/>
<stop offset="1" stop-color="#FF7F0A"/>
</linearGradient>
<linearGradient id="paint2_linear_46_7777" x1="526.117" y1="835.457" x2="526.117" y2="904.872" gradientUnits="userSpaceOnUse">
<stop stop-color="#FFB800"/>
<stop offset="1" stop-color="#FF7F0A"/>
</linearGradient>
<linearGradient id="paint3_linear_46_7777" x1="563.198" y1="305.365" x2="563.198" y2="328.819" gradientUnits="userSpaceOnUse">
<stop stop-color="#FFB800"/>
<stop offset="1" stop-color="#FF7F0A"/>
</linearGradient>
<linearGradient id="paint4_linear_46_7777" x1="547.047" y1="694.987" x2="547.047" y2="736.859" gradientUnits="userSpaceOnUse">
<stop stop-color="#FFB800"/>
<stop offset="1" stop-color="#FF7F0A"/>
</linearGradient>
<linearGradient id="paint5_linear_46_7777" x1="491.419" y1="514" x2="491.419" y2="601.816" gradientUnits="userSpaceOnUse">
<stop stop-color="#FFB800"/>
<stop offset="1" stop-color="#FF7F0A"/>
</linearGradient>
<linearGradient id="paint6_linear_46_7777" x1="501.515" y1="571.57" x2="501.515" y2="587.865" gradientUnits="userSpaceOnUse">
<stop stop-color="#FFB800"/>
<stop offset="1" stop-color="#FF7F0A"/>
</linearGradient>
<linearGradient id="paint7_linear_46_7777" x1="397.292" y1="409.789" x2="397.292" y2="503.844" gradientUnits="userSpaceOnUse">
<stop stop-color="#FFB800"/>
<stop offset="1" stop-color="#FF7F0A"/>
</linearGradient>
<clipPath id="clip0_46_7777">
<rect width="960" height="960" fill="white"/>
</clipPath>
<clipPath id="clip1_46_7777">
<rect width="885" height="854" fill="white" transform="translate(38 53)"/>
</clipPath>
</defs>
</svg>
