<svg width="960" height="960" viewBox="0 0 960 960" fill="none" xmlns="http://www.w3.org/2000/svg">
<g clip-path="url(#clip0_46_7727)">
<g clip-path="url(#clip1_46_7727)">
<path fill-rule="evenodd" clip-rule="evenodd" d="M786.164 785.253L787.864 786.846C709.909 869.142 600.877 920.27 480.201 920.27C342.891 920.27 220.673 854.083 142.178 751.109L142.37 750.969C190.417 702.835 261.401 681.263 328.288 693.45L328.287 693.442C327.888 683.114 327.482 672.647 329.671 662.545C331.86 652.44 336.955 642.567 345.482 636.719C355.305 629.977 367.982 629.519 379.906 629.364H380.221C423.627 628.787 467.034 628.204 510.441 627.614C524.115 627.438 537.784 627.257 551.448 627.071C557.804 626.983 564.983 627.246 569.255 631.938C572.985 636.053 573.195 642.164 573.178 647.715C573.16 664.682 573.136 681.649 573.108 698.615L574.123 699.351C653.901 687.111 737.032 721.22 786.164 785.253ZM752.955 779.568C715.219 736.564 657.33 711.994 600.182 714.723C598.733 714.793 597.502 713.674 597.433 712.225C597.364 710.776 598.482 709.546 599.931 709.476C658.677 706.67 718.112 731.896 756.904 776.104C757.861 777.194 757.752 778.853 756.662 779.81C755.572 780.767 753.912 780.659 752.955 779.568ZM556.693 646.925C556.57 645.48 555.298 644.408 553.853 644.532C552.407 644.655 551.336 645.927 551.459 647.373C552.797 663.02 554.132 678.667 555.465 694.314C555.588 695.759 556.86 696.831 558.305 696.708C559.75 696.585 560.822 695.313 560.699 693.868C559.366 678.22 558.03 662.573 556.693 646.925Z" fill="url(#paint0_linear_46_7727)"/>
<path fill-rule="evenodd" clip-rule="evenodd" d="M295.16 580.678C302.482 572.799 307.824 563.289 310.742 552.935L312.56 553.44C310.791 561.91 309.548 570.858 312.104 579.14C314.678 587.422 322.05 594.776 330.717 594.689C336.464 594.618 341.7 591.414 346.217 587.86C359.939 576.972 369.932 562.083 374.81 545.26L375.283 545.242C372.395 493.075 369.506 440.92 366.616 388.776L366.178 387.971C383.495 378.655 398.184 365.123 408.884 348.626C411.334 344.834 413.601 340.855 415.869 336.874C422.241 325.688 428.625 314.48 439.123 307.339C451.38 299.007 467.016 297.834 481.847 297.239C520.14 295.714 559.712 296.451 594.907 311.614L595.537 313.014C598.331 376.384 592.446 439.839 578.045 501.614L578.482 501.719C580.341 511.034 582.319 520.525 587.082 528.754C591.844 536.966 599.934 543.848 609.389 544.635C620.438 545.581 631.048 537.702 635.303 527.459C639.155 518.177 638.42 507.55 634.988 498.077L635.723 497.797C638.665 506.412 649.819 511.21 658.679 508.233C668.274 505.011 674.4 494.873 675.068 484.77C675.736 474.667 671.779 464.756 666.368 456.212C662.874 450.681 658.767 445.59 654.659 440.498L654.657 440.496C652.405 437.704 650.153 434.913 648.001 432.048C623.816 399.519 613.194 358.875 618.372 318.672L620.001 318.2C646.874 316.122 672.139 304.583 691.305 285.632C710.471 266.682 722.295 241.548 724.676 214.701C725.639 203.688 723.766 190.45 713.908 185.408C703.84 180.277 691.933 186.826 682.776 193.444C665.433 205.967 648.867 219.533 633.171 234.067C641.27 223.502 647.185 211.431 650.571 198.557C652.06 192.884 653.04 186.878 651.552 181.205C650.065 175.55 645.565 170.332 639.752 169.596C633.326 168.791 627.53 173.361 622.942 177.948C608.272 192.589 596.785 210.103 589.201 229.392C589.604 212.19 585.889 195.141 578.364 179.667C574.074 170.915 566.72 161.72 556.984 162.315C550.891 162.7 545.763 166.938 541.663 171.455C530.177 184.202 523.593 200.399 517.728 216.613C517.343 209.451 516.378 202.272 512.878 196.091C508.5 188.386 498.8 182.907 490.588 186.286C483.794 189.108 480.399 196.725 478.699 203.886C478.324 205.483 477.995 207.105 477.666 208.728C476.52 214.385 475.369 220.066 472.199 224.828C463.724 237.505 445.584 237.855 430.333 237.277C404.228 236.298 376.946 236.822 353.728 248.798C322.719 264.781 304.634 298.504 296.034 332.298C291.239 351.156 288.819 370.471 286.398 389.794L286.398 389.794L286.398 389.795C284.478 405.117 282.558 420.444 279.452 435.552C272.41 469.731 257.898 504.47 229.41 524.606C222.636 529.39 214.054 536.285 217.136 543.99C219.678 550.31 228.202 551.186 234.978 550.416C251.28 548.545 266.962 543.072 280.888 534.394C264.635 546.105 252.711 562.862 246.972 582.055C245.904 585.678 245.082 589.635 246.482 593.155C248.04 597.059 252.137 599.506 256.287 600.106C260.454 600.684 264.674 599.65 268.631 598.25C278.743 594.582 287.837 588.558 295.16 580.678ZM286.456 530.682C284.565 531.855 282.692 533.082 280.888 534.394C282.779 533.221 284.653 531.994 286.456 530.682ZM622.422 404.36C622.136 402.938 620.751 402.018 619.329 402.304C617.907 402.591 616.986 403.976 617.273 405.398C622.589 431.786 635.923 455.89 655.453 474.416C656.505 475.415 658.168 475.371 659.166 474.319C660.164 473.266 660.121 471.604 659.068 470.605C640.323 452.824 627.525 429.688 622.422 404.36ZM708.025 197.054C709.475 196.992 710.699 198.117 710.761 199.566C711.476 216.345 708.513 233.077 702.08 248.589C695.648 264.102 685.901 278.021 673.523 289.37C672.454 290.35 670.792 290.278 669.812 289.209C668.832 288.14 668.904 286.479 669.973 285.498C681.787 274.667 691.089 261.383 697.228 246.577C703.367 231.772 706.195 215.803 705.513 199.79C705.451 198.341 706.576 197.116 708.025 197.054ZM395.884 259.785C408.061 258.177 420.439 259.081 432.253 262.442C433.649 262.839 435.102 262.03 435.498 260.635C435.895 259.24 435.086 257.787 433.691 257.39C421.186 253.832 408.085 252.875 395.196 254.577C382.308 256.28 369.904 260.605 358.752 267.287C347.599 273.969 337.935 282.865 330.354 293.427C322.773 303.989 317.437 315.992 314.676 328.696C314.367 330.114 315.267 331.512 316.684 331.821C318.102 332.129 319.501 331.229 319.809 329.812C322.418 317.809 327.459 306.469 334.622 296.49C341.784 286.511 350.915 278.106 361.452 271.793C371.988 265.48 383.707 261.393 395.884 259.785Z" fill="#171717"/>
<path d="M142.368 750.969C190.415 702.835 261.399 681.263 328.286 693.45" stroke="#171717" stroke-width="5.253" stroke-linecap="round" stroke-linejoin="round"/>
<path d="M328.287 693.45C327.887 683.119 327.481 672.65 329.67 662.545C331.859 652.44 336.954 642.567 345.481 636.719C355.304 629.977 367.981 629.519 379.905 629.364H380.22C423.627 628.787 467.034 628.204 510.44 627.614C524.115 627.438 537.784 627.257 551.447 627.071C557.803 626.983 564.982 627.246 569.255 631.938C572.984 636.053 573.194 642.164 573.177 647.715C573.159 664.682 573.136 681.649 573.107 698.615" stroke="#171717" stroke-width="5.253" stroke-linecap="round" stroke-linejoin="round"/>
<path d="M574.121 699.351C653.895 687.111 737.031 721.22 786.163 785.251" stroke="#171717" stroke-width="5.253" stroke-linecap="round" stroke-linejoin="round"/>
<path d="M379.888 628.559C378.348 600.789 376.813 573.019 375.283 545.248C372.394 493.087 369.505 440.932 366.615 388.782" stroke="#171717" stroke-width="5.253" stroke-linecap="round" stroke-linejoin="round"/>
<path d="M510.422 625.828C508.811 612.888 507.222 599.738 509.231 586.869C511.263 573.982 517.461 561.164 528.405 554.069C537.772 547.993 549.679 546.61 558.679 540.026C570.06 531.692 574.42 516.984 577.659 503.256C577.782 502.713 577.922 502.156 578.044 501.61C592.445 439.835 598.331 376.38 595.537 313.01" stroke="#171717" stroke-width="5.253" stroke-linecap="round" stroke-linejoin="round"/>
<path d="M374.809 545.266C369.929 562.089 359.937 576.978 346.216 587.866C341.698 591.42 336.463 594.624 330.716 594.694C322.048 594.782 314.677 587.428 312.103 579.146C309.546 570.864 310.79 561.916 312.558 553.446" stroke="#171717" stroke-width="5.253" stroke-linecap="round" stroke-linejoin="round"/>
<path d="M286.631 530.575C287.244 530.207 287.874 529.84 288.487 529.49" stroke="#171717" stroke-width="5.253" stroke-linecap="round" stroke-linejoin="round"/>
<path d="M310.847 552.55C310.812 552.672 310.777 552.812 310.742 552.935C307.824 563.289 302.482 572.799 295.159 580.679C287.837 588.558 278.743 594.582 268.631 598.25C264.674 599.65 260.454 600.684 256.287 600.106C252.137 599.506 248.04 597.059 246.482 593.155C245.082 589.635 245.904 585.678 246.972 582.055C252.711 562.862 264.635 546.105 280.888 534.394C282.688 533.081 284.565 531.855 286.456 530.682" stroke="#171717" stroke-width="5.253" stroke-linecap="round" stroke-linejoin="round"/>
<path d="M288.311 529.349C287.751 529.749 287.191 530.172 286.63 530.575C286.574 530.612 286.516 530.646 286.455 530.675C284.655 531.988 282.778 533.214 280.887 534.387C266.961 543.065 251.279 548.538 234.977 550.409C228.201 551.179 219.677 550.303 217.135 543.983C214.053 536.278 222.635 529.383 229.409 524.599C257.897 504.463 272.409 469.724 279.451 435.545C286.473 401.384 287.436 366.102 296.033 332.291C304.633 298.497 322.718 264.774 353.727 248.791C376.945 236.815 404.227 236.291 430.332 237.27C445.583 237.848 463.723 237.498 472.198 224.821C476.277 218.692 477.013 211.041 478.698 203.879C480.398 196.718 483.793 189.101 490.587 186.279C498.799 182.9 508.499 188.379 512.877 196.084C516.377 202.265 517.342 209.444 517.727 216.606C517.827 218.392 517.884 220.178 517.954 221.946" stroke="#171717" stroke-width="5.253" stroke-linecap="round" stroke-linejoin="round"/>
<path d="M515.621 222.493L517.721 216.61C523.586 200.396 530.17 184.199 541.656 171.452C545.756 166.935 550.884 162.697 556.977 162.312C566.713 161.717 574.067 170.912 578.357 179.664C585.884 195.139 589.602 212.189 589.2 229.392C589.183 230.075 589.165 230.775 589.13 231.458" stroke="#171717" stroke-width="5.253" stroke-linecap="round" stroke-linejoin="round"/>
<path d="M588.146 232.106C588.479 231.195 588.83 230.285 589.198 229.392C596.781 210.103 608.268 192.589 622.938 177.948C627.526 173.361 633.321 168.791 639.747 169.596C645.561 170.332 650.061 175.549 651.547 181.205C653.035 186.878 652.055 192.884 650.566 198.557C647.179 211.431 641.264 223.502 633.167 234.067C631.871 235.748 630.522 237.394 629.121 239.004C629.874 238.129 630.644 237.253 631.397 236.378" stroke="#171717" stroke-width="5.253" stroke-linecap="round" stroke-linejoin="round"/>
<path d="M626.808 240.055C628.909 238.041 631.027 236.045 633.164 234.067C648.86 219.532 665.425 205.966 682.769 193.444C691.926 186.826 703.833 180.277 713.901 185.407C723.759 190.45 725.632 203.687 724.669 214.701C722.288 241.547 710.464 266.68 691.3 285.63C672.135 304.581 646.872 316.121 620 318.2" stroke="#171717" stroke-width="5.253" stroke-linecap="round" stroke-linejoin="round"/>
<path d="M618.369 318.673C613.191 358.875 623.811 399.518 647.995 432.048C654.071 440.138 660.953 447.648 666.363 456.212C671.774 464.756 675.731 474.667 675.063 484.77C674.395 494.873 668.269 505.011 658.674 508.233C649.814 511.209 638.661 506.412 635.719 497.797C635.469 497.079 635.281 496.341 635.159 495.591" stroke="#171717" stroke-width="5.253" stroke-linecap="round" stroke-linejoin="round"/>
<path d="M633.812 495.136C634.232 496.099 634.612 497.079 634.985 498.077C638.417 507.55 639.152 518.177 635.3 527.458C631.045 537.702 620.434 545.581 609.386 544.635C599.93 543.847 591.841 536.966 587.078 528.754C582.316 520.525 580.338 511.034 578.479 501.719" stroke="#171717" stroke-width="5.253" stroke-linecap="round" stroke-linejoin="round"/>
<path d="M355.023 393.229C358.834 391.682 362.557 389.928 366.177 387.977C383.494 378.661 398.182 365.129 408.883 348.632C418.215 334.187 424.883 317.027 439.122 307.345C451.379 299.01 467.015 297.837 481.845 297.245C520.139 295.721 559.711 296.457 594.905 311.62" stroke="#171717" stroke-width="5.253" stroke-linecap="round" stroke-linejoin="round"/>
<path d="M555.599 335.728C534.262 334.858 512.905 336.878 492.109 341.734" stroke="#171717" stroke-width="5.253" stroke-linecap="round" stroke-linejoin="round"/>
<path d="M490.723 340.263C493.594 375.143 496.46 410.016 499.323 444.883C499.936 452.272 500.323 460.431 495.769 466.283C488.769 475.23 474.969 473.444 463.918 470.783" stroke="#171717" stroke-width="5.253" stroke-linecap="round" stroke-linejoin="round"/>
<path d="M414.154 495.083C414.635 500.319 416.298 505.377 419.02 509.876C421.742 514.375 425.451 518.196 429.866 521.051C434.281 523.907 439.288 525.721 444.507 526.358C449.726 526.995 455.022 526.437 459.994 524.727" stroke="#171717" stroke-width="5.253" stroke-linecap="round" stroke-linejoin="round"/>
<path d="M447.054 387.154C447.001 379.747 446.955 372.334 446.914 364.916" stroke="#171717" stroke-width="5.253" stroke-linecap="round" stroke-linejoin="round"/>
<path d="M530.751 388.817C530.645 380.85 530.552 372.884 530.471 364.917" stroke="#171717" stroke-width="5.253" stroke-linecap="round" stroke-linejoin="round"/>
<path d="M142.176 751.109C85.2344 676.448 51.3184 582.421 51.3184 480.27C51.3184 237.253 243.329 40.27 480.2 40.27C717.053 40.27 909.081 237.253 909.081 480.27C909.081 599.493 862.873 707.615 787.862 786.846C709.909 869.142 600.876 920.27 480.2 920.27C342.889 920.27 220.671 854.083 142.176 751.109Z" stroke="#171717" stroke-width="5.253" stroke-linecap="round" stroke-linejoin="round"/>
<path d="M632.859 564.37C661.144 552.383 683.63 529.824 695.524 501.5" stroke="#171717" stroke-width="5.253" stroke-linecap="round" stroke-linejoin="round"/>
<path d="M669.4 583.139C682.644 578.099 694.1 569.254 702.326 557.717" stroke="#171717" stroke-width="5.253" stroke-linecap="round" stroke-linejoin="round"/>
<path d="M202.239 587.11C193.98 579.897 188.513 570.014 186.79 559.185C185.068 548.355 187.2 537.264 192.814 527.844" stroke="#171717" stroke-width="5.253" stroke-linecap="round" stroke-linejoin="round"/>
<path d="M156.985 584.093C150.311 581.327 146.698 572.805 149.351 566.085" stroke="#171717" stroke-width="5.253" stroke-linecap="round" stroke-linejoin="round"/>
<path d="M193.135 354.284C192.991 354.959 192.847 355.634 192.704 356.309C182.415 345.138 170.612 335.464 157.639 327.57" stroke="url(#paint1_linear_46_7727)" stroke-width="5.253" stroke-linecap="round" stroke-linejoin="round"/>
<path d="M160.913 361.733L184.377 317.845" stroke="url(#paint2_linear_46_7727)" stroke-width="5.253" stroke-linecap="round" stroke-linejoin="round"/>
<path d="M806.033 510.287C796.394 497.821 786.079 485.892 775.133 474.556" stroke="url(#paint3_linear_46_7727)" stroke-width="5.253" stroke-linecap="round" stroke-linejoin="round"/>
<path d="M776.947 512.512C788.379 499.854 799.811 487.194 811.241 474.532" stroke="url(#paint4_linear_46_7727)" stroke-width="5.253" stroke-linecap="round" stroke-linejoin="round"/>
<path d="M413.167 147.5L367.287 107.414" stroke="#171717" stroke-width="5.253" stroke-linecap="round" stroke-linejoin="round"/>
<path d="M365.154 153.909C378.585 134.16 392.013 114.411 405.439 94.6602" stroke="#171717" stroke-width="5.253" stroke-linecap="round" stroke-linejoin="round"/>
<path d="M707.885 314.882C726.327 298.334 743.853 280.794 760.385 262.338" stroke="#171717" stroke-width="5.253" stroke-linecap="round" stroke-linejoin="round"/>
<path d="M703.885 356.538C746.779 350.317 789.842 345.455 833.073 341.954" stroke="#171717" stroke-width="5.253" stroke-linecap="round" stroke-linejoin="round"/>
<path d="M686.047 393.66L728.147 422.588" stroke="#171717" stroke-width="5.253" stroke-linecap="round" stroke-linejoin="round"/>
<path d="M538.285 700.273L491.935 656.396L481.43 731.791L538.285 700.273Z" stroke="#171717" stroke-width="5.253" stroke-linecap="round" stroke-linejoin="round"/>
<path d="M408.095 730.348L379.666 684.618L359.273 742.09L408.095 730.348Z" stroke="#171717" stroke-width="5.253" stroke-linecap="round" stroke-linejoin="round"/>
<path d="M617.8 736.734C619.036 738.588 651.79 795.442 651.79 795.442L557.238 803.475L617.8 736.734Z" stroke="#171717" stroke-width="5.253" stroke-linecap="round" stroke-linejoin="round"/>
<path d="M399.237 813.983C400.473 818.309 434.463 890 434.463 890L345.471 878.876L399.237 813.983Z" stroke="#171717" stroke-width="5.253" stroke-linecap="round" stroke-linejoin="round"/>
<path d="M275.845 748.064L220.228 744.974L233.204 784.526L275.845 748.064Z" stroke="#171717" stroke-width="5.253" stroke-linecap="round" stroke-linejoin="round"/>
<path d="M565.475 859.096V894.939L522.834 889.378L565.475 859.096Z" stroke="#171717" stroke-width="5.253" stroke-linecap="round" stroke-linejoin="round"/>
<path d="M324.645 818.8C329.289 810.272 333.935 801.745 338.581 793.217" stroke="#171717" stroke-width="5.253" stroke-linecap="round" stroke-linejoin="round"/>
<path d="M318.076 741.734C309.897 735.338 301.718 728.942 293.541 722.547" stroke="#171717" stroke-width="5.253" stroke-linecap="round" stroke-linejoin="round"/>
<path d="M441.879 768.664C444.899 763.72 447.92 758.776 450.942 753.832" stroke="#171717" stroke-width="5.253" stroke-linecap="round" stroke-linejoin="round"/>
<path d="M438.583 677.2L417.16 664.84" stroke="#171717" stroke-width="5.253" stroke-linecap="round" stroke-linejoin="round"/>
<path d="M486.226 855.9C480.747 863.876 475.267 871.851 469.787 879.826" stroke="#171717" stroke-width="5.253" stroke-linecap="round" stroke-linejoin="round"/>
<path d="M520.73 805.316L506.039 796.028" stroke="#171717" stroke-width="5.253" stroke-linecap="round" stroke-linejoin="round"/>
<path d="M567.789 734.829C565.259 742.469 560.527 749.191 554.189 754.152" stroke="#171717" stroke-width="5.253" stroke-linecap="round" stroke-linejoin="round"/>
<path d="M711.282 777.81C703.781 774.201 697.293 768.785 692.402 762.049" stroke="#171717" stroke-width="5.253" stroke-linecap="round" stroke-linejoin="round"/>
<path d="M645.462 840.394L627.662 864.53" stroke="#171717" stroke-width="5.253" stroke-linecap="round" stroke-linejoin="round"/>
<g opacity="0.1">
<path d="M456.736 298.159C445.67 299.63 436.536 302.977 427.976 310.35C423.276 314.397 419.463 319.217 415.657 324.071C413.078 327.359 408.219 333.371 404.79 338.477C403.954 339.721 403.084 340.937 402.204 342.15C400.304 344.768 404.781 339.427 401.457 342.959C399.677 344.85 397.857 346.693 396.057 348.559C392.423 352.307 388.838 356.147 385.307 359.994C376.231 369.883 368.738 380.694 365.059 393.758C361.444 406.593 361.659 419.992 362.117 433.175C362.574 446.429 363.033 459.683 363.493 472.937C364.411 499.444 365.314 525.946 365.98 552.461C366.729 582.293 367.845 612.104 368.967 641.925L391.387 619.5C367.387 621.812 346.816 632.963 332.648 652.623C319.277 671.177 315.933 696.852 322.582 718.537L350.252 690.867C315.554 683.16 279.567 683.348 244.952 691.416C237.1 693.223 229.355 695.465 221.752 698.131C212.986 701.206 203.66 704.271 196.099 709.7C189.676 714.312 182.09 717.793 175.299 721.907C167.198 726.916 159.409 732.411 151.975 738.363C143.527 744.997 144.506 760.409 151.975 767.263C160.938 775.49 171.864 774.341 180.875 767.263C176.815 770.451 182.402 766.124 183.146 765.574C184.442 764.616 185.747 763.67 187.061 762.737C190.128 760.57 193.248 758.462 196.444 756.489C199.64 754.516 202.961 752.748 206.307 751.039C208.221 750.062 210.149 749.114 212.093 748.195C216.112 746.283 209.093 748.556 213.132 748.089C216.543 747.694 219.953 745.889 223.002 744.62C217.779 746.797 222.477 744.852 223.683 744.372C227.173 742.983 230.698 741.686 234.259 740.48C241.636 737.984 249.141 735.885 256.744 734.194C260.414 733.377 264.104 732.655 267.814 732.029C269.647 731.598 271.51 731.308 273.388 731.161C267.199 731.213 273.155 731.22 274.663 731.061C282.133 730.25 289.642 729.833 297.157 729.812C304.672 729.789 312.182 730.171 319.657 730.956C321.174 731.116 327.193 731.131 320.879 731.037C322.752 731.188 324.612 731.477 326.444 731.903C330.415 732.576 334.362 733.372 338.293 734.248C354.364 737.833 371.261 723.73 365.963 706.578C365.319 704.493 364.847 702.404 364.339 700.285C363.113 695.171 364.394 705.08 364.303 699.82C364.271 697.92 364.145 696.038 364.209 694.133C364.229 693.32 364.272 692.508 364.339 691.697C364.595 689.159 364.524 689.536 364.127 692.828C363.518 691.086 366.072 683.066 367.127 681.869L366.127 684.241C366.579 683.257 367.062 682.287 367.576 681.332C368.468 679.67 369.591 678.155 370.514 676.521C371.468 675.163 371.054 675.656 369.273 678.001C369.908 677.209 370.566 676.435 371.247 675.68C372.267 674.547 373.334 673.46 374.447 672.42C375.189 671.725 375.949 671.051 376.729 670.4C374.165 672.309 373.861 672.549 375.815 671.12C377.101 670.296 378.34 669.42 379.658 668.64C380.976 667.86 382.358 667.218 383.691 666.483C385.913 665.464 385.527 665.61 382.532 666.923C383.48 666.557 384.438 666.218 385.406 665.907C386.856 665.444 388.329 665.041 389.812 664.7C390.803 664.473 391.799 664.275 392.801 664.106C389.351 664.519 388.877 664.599 391.379 664.346C403.116 663.246 414.258 654.963 413.801 641.924C412.037 591.544 409.592 541.202 407.676 490.824C406.743 466.285 404.644 441.474 405.158 416.924C405.22 413.965 405.428 411.018 405.577 408.064C405.691 405.783 404.765 406.14 405.467 408.53C405.291 407.93 405.968 405.845 406.143 405.085C406.469 403.661 406.854 402.254 407.299 400.864L407.565 400.029C408.431 397.715 408.354 397.826 407.332 400.361C407.557 398.243 409.958 395.418 411.132 393.627C411.698 392.764 412.314 391.94 412.885 391.082C415.668 386.9 410.886 393.362 412.958 390.96C414.494 389.178 415.967 387.339 417.505 385.56C421.834 380.798 425.873 375.78 429.6 370.532C433.539 364.434 436.863 357.96 439.523 351.206C441.817 345.717 442.703 339.98 444.323 334.259C446.945 324.987 450.302 312.128 459.105 306.894C462.774 304.712 461.59 297.514 456.74 298.159H456.736Z" fill="#171717"/>
</g>
</g>
</g>
<defs>
<linearGradient id="paint0_linear_46_7727" x1="465.021" y1="627.059" x2="465.021" y2="920.27" gradientUnits="userSpaceOnUse">
<stop stop-color="#FFB800"/>
<stop offset="1" stop-color="#FF7F0A"/>
</linearGradient>
<linearGradient id="paint1_linear_46_7727" x1="175.387" y1="327.57" x2="175.387" y2="356.309" gradientUnits="userSpaceOnUse">
<stop stop-color="#FFB800"/>
<stop offset="1" stop-color="#FF7F0A"/>
</linearGradient>
<linearGradient id="paint2_linear_46_7727" x1="172.645" y1="317.845" x2="172.645" y2="361.733" gradientUnits="userSpaceOnUse">
<stop stop-color="#FFB800"/>
<stop offset="1" stop-color="#FF7F0A"/>
</linearGradient>
<linearGradient id="paint3_linear_46_7727" x1="790.583" y1="474.556" x2="790.583" y2="510.287" gradientUnits="userSpaceOnUse">
<stop stop-color="#FFB800"/>
<stop offset="1" stop-color="#FF7F0A"/>
</linearGradient>
<linearGradient id="paint4_linear_46_7727" x1="794.094" y1="474.532" x2="794.094" y2="512.512" gradientUnits="userSpaceOnUse">
<stop stop-color="#FFB800"/>
<stop offset="1" stop-color="#FF7F0A"/>
</linearGradient>
<clipPath id="clip0_46_7727">
<rect width="960" height="960" fill="white"/>
</clipPath>
<clipPath id="clip1_46_7727">
<rect width="864" height="886" fill="white" transform="translate(48 37)"/>
</clipPath>
</defs>
</svg>
